<mxfile host="app.diagrams.net" modified="2022-04-02T20:45:28.082Z" agent="5.0 (Windows NT 10.0; Win64; x64) AppleWebKit/537.36 (KHTML, like Gecko) Chrome/100.0.4896.60 Safari/537.36" etag="rsVFMvKQTl0X2K2Md9v9" version="17.4.0" type="github">
  <diagram id="TBNB3XB1Rx7Ae3KMM-3r" name="Page-1">
    <mxGraphModel dx="1102" dy="606" grid="1" gridSize="10" guides="1" tooltips="1" connect="1" arrows="1" fold="1" page="1" pageScale="1" pageWidth="827" pageHeight="1169" math="0" shadow="0">
      <root>
        <mxCell id="0" />
        <mxCell id="1" parent="0" />
        <mxCell id="DFWitaQUEnhpRLkt19u8-105" value="" style="rounded=1;whiteSpace=wrap;html=1;shadow=0;sketch=0;strokeColor=default;strokeWidth=1;fillColor=default;gradientColor=none;" parent="1" vertex="1">
          <mxGeometry x="600" y="40" width="180" height="80" as="geometry" />
        </mxCell>
        <mxCell id="DFWitaQUEnhpRLkt19u8-41" value="Client 1" style="rounded=1;whiteSpace=wrap;html=1;strokeWidth=2;fillColor=#FFFFCC;" parent="1" vertex="1">
          <mxGeometry x="40" y="40" width="80" height="80" as="geometry" />
        </mxCell>
        <mxCell id="DFWitaQUEnhpRLkt19u8-42" value="Serveur" style="rounded=1;whiteSpace=wrap;html=1;strokeWidth=2;fillColor=#D4E1F5;" parent="1" vertex="1">
          <mxGeometry x="280" y="100" width="80" height="80" as="geometry" />
        </mxCell>
        <mxCell id="DFWitaQUEnhpRLkt19u8-47" value="Client 2" style="rounded=1;whiteSpace=wrap;html=1;strokeWidth=2;fillColor=#FFFFCC;" parent="1" vertex="1">
          <mxGeometry x="40" y="160" width="80" height="80" as="geometry" />
        </mxCell>
        <mxCell id="DFWitaQUEnhpRLkt19u8-66" value="" style="ellipse;whiteSpace=wrap;html=1;aspect=fixed;shadow=0;sketch=0;strokeColor=default;fillColor=#00CC00;gradientColor=none;" parent="1" vertex="1">
          <mxGeometry x="115" y="75" width="10" height="10" as="geometry" />
        </mxCell>
        <mxCell id="DFWitaQUEnhpRLkt19u8-67" value="" style="ellipse;whiteSpace=wrap;html=1;aspect=fixed;shadow=0;sketch=0;strokeColor=default;fillColor=#00CC00;gradientColor=none;" parent="1" vertex="1">
          <mxGeometry x="115" y="195" width="10" height="10" as="geometry" />
        </mxCell>
        <mxCell id="DFWitaQUEnhpRLkt19u8-69" value="" style="ellipse;whiteSpace=wrap;html=1;aspect=fixed;shadow=0;sketch=0;strokeColor=default;fillColor=#FF0000;gradientColor=none;" parent="1" vertex="1">
          <mxGeometry x="275" y="135" width="10" height="10" as="geometry" />
        </mxCell>
        <mxCell id="DFWitaQUEnhpRLkt19u8-74" value="Exéc" style="ellipse;whiteSpace=wrap;html=1;aspect=fixed;shadow=0;sketch=0;strokeColor=default;fillColor=#D4E1F5;gradientColor=none;strokeWidth=2;" parent="1" vertex="1">
          <mxGeometry x="520" y="40" width="40" height="40" as="geometry" />
        </mxCell>
        <mxCell id="DFWitaQUEnhpRLkt19u8-75" value="Exéc" style="ellipse;whiteSpace=wrap;html=1;aspect=fixed;shadow=0;sketch=0;strokeColor=default;fillColor=#D4E1F5;gradientColor=none;strokeWidth=2;" parent="1" vertex="1">
          <mxGeometry x="520" y="120" width="40" height="40" as="geometry" />
        </mxCell>
        <mxCell id="DFWitaQUEnhpRLkt19u8-76" value="Exéc" style="ellipse;whiteSpace=wrap;html=1;aspect=fixed;shadow=0;sketch=0;strokeColor=default;fillColor=#D4E1F5;gradientColor=none;strokeWidth=2;" parent="1" vertex="1">
          <mxGeometry x="520" y="200" width="40" height="40" as="geometry" />
        </mxCell>
        <mxCell id="DFWitaQUEnhpRLkt19u8-77" value="" style="ellipse;whiteSpace=wrap;html=1;aspect=fixed;shadow=0;sketch=0;strokeColor=default;fillColor=#007FFF;gradientColor=none;" parent="1" vertex="1">
          <mxGeometry x="515" y="55" width="10" height="10" as="geometry" />
        </mxCell>
        <mxCell id="DFWitaQUEnhpRLkt19u8-78" value="" style="ellipse;whiteSpace=wrap;html=1;aspect=fixed;shadow=0;sketch=0;strokeColor=default;fillColor=#007FFF;gradientColor=none;" parent="1" vertex="1">
          <mxGeometry x="515" y="135" width="10" height="10" as="geometry" />
        </mxCell>
        <mxCell id="DFWitaQUEnhpRLkt19u8-79" value="" style="ellipse;whiteSpace=wrap;html=1;aspect=fixed;shadow=0;sketch=0;strokeColor=default;fillColor=#007FFF;gradientColor=none;" parent="1" vertex="1">
          <mxGeometry x="515" y="215" width="10" height="10" as="geometry" />
        </mxCell>
        <mxCell id="DFWitaQUEnhpRLkt19u8-81" value="" style="endArrow=classic;html=1;rounded=0;strokeColor=default;strokeWidth=2;entryX=0;entryY=0.5;entryDx=0;entryDy=0;exitX=1;exitY=0.5;exitDx=0;exitDy=0;startArrow=classic;startFill=1;" parent="1" source="DFWitaQUEnhpRLkt19u8-66" target="DFWitaQUEnhpRLkt19u8-77" edge="1">
          <mxGeometry width="50" height="50" relative="1" as="geometry">
            <mxPoint x="130" y="80" as="sourcePoint" />
            <mxPoint x="370" y="180" as="targetPoint" />
          </mxGeometry>
        </mxCell>
        <mxCell id="DFWitaQUEnhpRLkt19u8-94" value="communication" style="edgeLabel;html=1;align=center;verticalAlign=middle;resizable=0;points=[];" parent="DFWitaQUEnhpRLkt19u8-81" vertex="1" connectable="0">
          <mxGeometry x="0.1091" y="-3" relative="1" as="geometry">
            <mxPoint x="-23" y="-12" as="offset" />
          </mxGeometry>
        </mxCell>
        <mxCell id="DFWitaQUEnhpRLkt19u8-82" value="" style="endArrow=classic;html=1;rounded=0;strokeColor=default;strokeWidth=2;exitX=1;exitY=0.5;exitDx=0;exitDy=0;entryX=0;entryY=0.5;entryDx=0;entryDy=0;startArrow=classic;startFill=1;edgeStyle=orthogonalEdgeStyle;curved=1;" parent="1" source="DFWitaQUEnhpRLkt19u8-67" target="DFWitaQUEnhpRLkt19u8-78" edge="1">
          <mxGeometry width="50" height="50" relative="1" as="geometry">
            <mxPoint x="320" y="230" as="sourcePoint" />
            <mxPoint x="370" y="180" as="targetPoint" />
            <Array as="points">
              <mxPoint x="410" y="200" />
              <mxPoint x="410" y="140" />
            </Array>
          </mxGeometry>
        </mxCell>
        <mxCell id="DFWitaQUEnhpRLkt19u8-83" value="" style="endArrow=classic;html=1;rounded=0;strokeColor=default;strokeWidth=1;exitX=1;exitY=0.5;exitDx=0;exitDy=0;entryX=0;entryY=0.5;entryDx=0;entryDy=0;dashed=1;edgeStyle=orthogonalEdgeStyle;curved=1;" parent="1" source="DFWitaQUEnhpRLkt19u8-66" target="DFWitaQUEnhpRLkt19u8-69" edge="1">
          <mxGeometry width="50" height="50" relative="1" as="geometry">
            <mxPoint x="320" y="230" as="sourcePoint" />
            <mxPoint x="370" y="180" as="targetPoint" />
          </mxGeometry>
        </mxCell>
        <mxCell id="DFWitaQUEnhpRLkt19u8-92" value="connexion" style="edgeLabel;html=1;align=center;verticalAlign=middle;resizable=0;points=[];" parent="DFWitaQUEnhpRLkt19u8-83" vertex="1" connectable="0">
          <mxGeometry x="-0.088" y="-8" relative="1" as="geometry">
            <mxPoint x="8" y="11" as="offset" />
          </mxGeometry>
        </mxCell>
        <mxCell id="DFWitaQUEnhpRLkt19u8-84" value="" style="endArrow=classic;html=1;rounded=0;dashed=1;strokeColor=default;strokeWidth=1;exitX=1;exitY=0.5;exitDx=0;exitDy=0;entryX=0;entryY=0.5;entryDx=0;entryDy=0;edgeStyle=orthogonalEdgeStyle;curved=1;" parent="1" source="DFWitaQUEnhpRLkt19u8-67" target="DFWitaQUEnhpRLkt19u8-69" edge="1">
          <mxGeometry width="50" height="50" relative="1" as="geometry">
            <mxPoint x="320" y="230" as="sourcePoint" />
            <mxPoint x="370" y="180" as="targetPoint" />
          </mxGeometry>
        </mxCell>
        <mxCell id="DFWitaQUEnhpRLkt19u8-85" value="" style="endArrow=classic;html=1;rounded=0;dashed=1;strokeColor=default;strokeWidth=1;curved=1;exitX=1;exitY=0.5;exitDx=0;exitDy=0;entryX=0;entryY=1;entryDx=0;entryDy=0;dashPattern=1 4;" parent="1" source="DFWitaQUEnhpRLkt19u8-42" target="DFWitaQUEnhpRLkt19u8-74" edge="1">
          <mxGeometry width="50" height="50" relative="1" as="geometry">
            <mxPoint x="280" y="230" as="sourcePoint" />
            <mxPoint x="330" y="180" as="targetPoint" />
          </mxGeometry>
        </mxCell>
        <mxCell id="DFWitaQUEnhpRLkt19u8-89" value="Fork" style="edgeLabel;html=1;align=center;verticalAlign=middle;resizable=0;points=[];" parent="DFWitaQUEnhpRLkt19u8-85" vertex="1" connectable="0">
          <mxGeometry x="0.167" y="-3" relative="1" as="geometry">
            <mxPoint x="2" y="-4" as="offset" />
          </mxGeometry>
        </mxCell>
        <mxCell id="DFWitaQUEnhpRLkt19u8-86" value="" style="endArrow=classic;html=1;rounded=0;dashed=1;dashPattern=1 4;strokeColor=default;strokeWidth=1;curved=1;exitX=1;exitY=0.5;exitDx=0;exitDy=0;entryX=0;entryY=0;entryDx=0;entryDy=0;" parent="1" source="DFWitaQUEnhpRLkt19u8-42" target="DFWitaQUEnhpRLkt19u8-76" edge="1">
          <mxGeometry width="50" height="50" relative="1" as="geometry">
            <mxPoint x="280" y="230" as="sourcePoint" />
            <mxPoint x="430" y="210" as="targetPoint" />
          </mxGeometry>
        </mxCell>
        <mxCell id="DFWitaQUEnhpRLkt19u8-87" value="" style="endArrow=classic;html=1;rounded=0;dashed=1;dashPattern=1 4;strokeColor=default;strokeWidth=1;curved=1;exitX=1;exitY=0.5;exitDx=0;exitDy=0;entryX=0;entryY=0;entryDx=0;entryDy=0;" parent="1" source="DFWitaQUEnhpRLkt19u8-42" target="DFWitaQUEnhpRLkt19u8-75" edge="1">
          <mxGeometry width="50" height="50" relative="1" as="geometry">
            <mxPoint x="280" y="230" as="sourcePoint" />
            <mxPoint x="330" y="180" as="targetPoint" />
          </mxGeometry>
        </mxCell>
        <mxCell id="DFWitaQUEnhpRLkt19u8-90" value="Fork" style="edgeLabel;html=1;align=center;verticalAlign=middle;resizable=0;points=[];" parent="1" vertex="1" connectable="0">
          <mxGeometry x="414.0024347886462" y="134.99845916553622" as="geometry" />
        </mxCell>
        <mxCell id="DFWitaQUEnhpRLkt19u8-91" value="Fork" style="edgeLabel;html=1;align=center;verticalAlign=middle;resizable=0;points=[];" parent="1" vertex="1" connectable="0">
          <mxGeometry x="460.00243478864627" y="179.99845916553622" as="geometry" />
        </mxCell>
        <mxCell id="DFWitaQUEnhpRLkt19u8-93" value="connexion" style="edgeLabel;html=1;align=center;verticalAlign=middle;resizable=0;points=[];" parent="1" vertex="1" connectable="0">
          <mxGeometry x="200" y="170" as="geometry" />
        </mxCell>
        <mxCell id="DFWitaQUEnhpRLkt19u8-95" value="communication" style="edgeLabel;html=1;align=center;verticalAlign=middle;resizable=0;points=[];" parent="1" vertex="1" connectable="0">
          <mxGeometry x="320.00060335854585" y="205.00070464346467" as="geometry" />
        </mxCell>
        <mxCell id="DFWitaQUEnhpRLkt19u8-96" value="" style="ellipse;whiteSpace=wrap;html=1;aspect=fixed;shadow=0;sketch=0;strokeColor=default;fillColor=#007FFF;gradientColor=none;" parent="1" vertex="1">
          <mxGeometry x="610" y="100" width="10" height="10" as="geometry" />
        </mxCell>
        <mxCell id="DFWitaQUEnhpRLkt19u8-97" value="" style="ellipse;whiteSpace=wrap;html=1;aspect=fixed;shadow=0;sketch=0;strokeColor=default;fillColor=#FF0000;gradientColor=none;" parent="1" vertex="1">
          <mxGeometry x="610" y="80" width="10" height="10" as="geometry" />
        </mxCell>
        <mxCell id="DFWitaQUEnhpRLkt19u8-98" value="" style="ellipse;whiteSpace=wrap;html=1;aspect=fixed;shadow=0;sketch=0;strokeColor=default;fillColor=#00CC00;gradientColor=none;" parent="1" vertex="1">
          <mxGeometry x="610" y="60" width="10" height="10" as="geometry" />
        </mxCell>
        <mxCell id="DFWitaQUEnhpRLkt19u8-101" value="sockets client" style="text;html=1;strokeColor=none;fillColor=none;align=left;verticalAlign=middle;whiteSpace=wrap;rounded=0;shadow=0;sketch=0;" parent="1" vertex="1">
          <mxGeometry x="630" y="60" width="100" height="20" as="geometry" />
        </mxCell>
        <mxCell id="DFWitaQUEnhpRLkt19u8-102" value="socket de connexion" style="text;html=1;strokeColor=none;fillColor=none;align=left;verticalAlign=middle;whiteSpace=wrap;rounded=0;shadow=0;sketch=0;" parent="1" vertex="1">
          <mxGeometry x="630" y="80" width="120" height="20" as="geometry" />
        </mxCell>
        <mxCell id="DFWitaQUEnhpRLkt19u8-103" value="sockets de communication" style="text;html=1;strokeColor=none;fillColor=none;align=left;verticalAlign=middle;whiteSpace=wrap;rounded=0;shadow=0;sketch=0;" parent="1" vertex="1">
          <mxGeometry x="630" y="100" width="150" height="20" as="geometry" />
        </mxCell>
        <mxCell id="DFWitaQUEnhpRLkt19u8-104" value="&lt;u&gt;Légendes&lt;/u&gt;" style="text;html=1;strokeColor=none;fillColor=none;align=left;verticalAlign=middle;whiteSpace=wrap;rounded=0;shadow=0;sketch=0;" parent="1" vertex="1">
          <mxGeometry x="630" y="40" width="100" height="20" as="geometry" />
        </mxCell>
      </root>
    </mxGraphModel>
  </diagram>
</mxfile>
